<svg xmlns="http://www.w3.org/2000/svg" xmlns:xlink="http://www.w3.org/1999/xlink" width="192.481" height="93.662" viewBox="0 0 192.481 93.662">
  <defs>
    <clipPath id="clip-path">
      <rect id="Rectangle_22" data-name="Rectangle 22" width="192.481" height="93.662" fill="none"/>
    </clipPath>
  </defs>
  <g id="Groupe_9" data-name="Groupe 9" clip-path="url(#clip-path)">
    <path id="Tracé_33" data-name="Tracé 33" d="M43.548,43.432h0c-1.721,0-3.486-.091-5.192-.179-.573-.03-1.135-.059-1.682-.083a56.294,56.294,0,0,1-8.162-.787.391.391,0,0,0,.039-.225c1.359-.174,5.488-.92,5.488-.92-2.977-.844-3.491-1.624-3.465-2.085.267-.036.513-.063.728-.079.923,1.117,7.463,3.278,9.372,3.336A13.725,13.725,0,0,0,46,41.673c3.72-1.07,6.314-4.214,5.711-6.459A23.794,23.794,0,0,0,48.1,32.382a47.592,47.592,0,0,0,6.224-7.473c1.322-1.978,2.817-2.68,3.7-2.68a4.759,4.759,0,0,1,3.337,1.192,3.159,3.159,0,0,0,.811.527,3.921,3.921,0,0,0,1,.228,3.707,3.707,0,0,1,1.1.272.956.956,0,0,1,.545.8,8.078,8.078,0,0,0-3.009-.471,4.261,4.261,0,0,0-2.78.9c-.031.029-.066.056-.1.088-.553.451-1.581,1.294-3.336,6.463a17.85,17.85,0,0,0-.861,4.164,6.837,6.837,0,0,1-1.71,4.431c-1.99,2.335-6.354,2.605-9.467,2.605m1.885,5.876V44.2c.49-.023.986-.056,1.479-.106a10,10,0,0,0,.132,5.218h.842a9.168,9.168,0,0,1-.1-5.32c2.309-.326,4.493-1.053,5.845-2.641a7.564,7.564,0,0,0,1.9-4.862,17.119,17.119,0,0,1,.823-3.995c1.68-4.95,2.629-5.726,3.084-6.1l.125-.1a3.451,3.451,0,0,1,2.248-.705,7.464,7.464,0,0,1,3.267.624.412.412,0,0,0,.35-.023.4.4,0,0,0,.2-.292c.011-.068.233-1.676-1.053-2.191a4.528,4.528,0,0,0-1.3-.322,3.23,3.23,0,0,1-.816-.182,2.732,2.732,0,0,1-.595-.4,5.52,5.52,0,0,0-3.835-1.368c-1.129,0-2.868.8-4.368,3.041-1.456,2.253-5.52,7.215-6.428,7.547-.173.063-.631.2-1.267.4-3.459,1.065-11.519,3.542-14.824,5.871-1.881.162-6.664,1.145-8.24,2.776a.405.405,0,0,0,.119.646l.069.031c1.392.65,1.563.7,4.271.826a.452.452,0,0,0,.015.056c.11.324.294.866,9.269,1.357.547.025,1.109.053,1.68.083,1.717.088,3.492.18,5.234.18.353,0,.716,0,1.08-.013v5.085Z" transform="translate(-21.944 -21.425)" fill="#223d54"/>
    <path id="Tracé_34" data-name="Tracé 34" d="M64.767,23.855c.2.05.567.016.64-.31.056-.249-1.2-.574-1.145-.254a.627.627,0,0,0,.505.564" transform="translate(-27.401 -21.653)" fill="#223d54"/>
    <path id="Tracé_35" data-name="Tracé 35" d="M35.8,81.97l6.717-28.939H49.69v43.66h-7V76.606L38.415,96.691h-5.1L28.885,76.475V96.691H21.819V53.031h7.175Z" transform="translate(-21.818 -25.583)" fill="#223d54"/>
    <path id="Tracé_36" data-name="Tracé 36" d="M78.507,81.033l2.07,15.659H73.25l-1.2-9.073H66.707l-1.221,9.073H58.18L60.253,81.1l4.426-28.066H74.1Zm-7.394-.393L69.368,67.425,67.623,80.641Z" transform="translate(-26.602 -25.583)" fill="#223d54"/>
    <path id="Tracé_37" data-name="Tracé 37" d="M88.24,53.032h9.531q8.766.022,8.766,9.442v6.434q0,5.932-4.756,7.676l7,20.108h-7.918L95.9,77.915H95.5V96.692H88.24ZM95.5,59.988V71.373h.872a5.481,5.481,0,0,0,1.527-.13,2.242,2.242,0,0,0,1.374-2.334V62.474q0-2.484-2.137-2.485Z" transform="translate(-30.556 -25.583)" fill="#223d54"/>
    <path id="Tracé_38" data-name="Tracé 38" d="M115.411,61.675q0-9.421,9.4-9.421,9.422,0,9.423,9.421v6.193h-7.264V61.675q0-2.443-2.136-2.465h-.043q-2.117,0-2.116,2.465v3.881q0,2.66,5.583,6.674,5.975,4.253,5.977,10.207v5.407q0,9.446-9.4,9.443-9.421-.021-9.421-9.443V81.651h7.261v6.193q0,2.466,2.16,2.465,2.136,0,2.136-2.465V82.959q0-2.9-5.582-6.912-5.975-4.253-5.975-10.361Z" transform="translate(-34.131 -25.481)" fill="#223d54"/>
    <path id="Tracé_39" data-name="Tracé 39" d="M161.175,81.033l2.07,15.659h-7.327l-1.2-9.073h-5.344l-1.221,9.073H140.85L142.921,81.1l4.427-28.066h9.421Zm-7.394-.393-1.744-13.216-1.745,13.216Z" transform="translate(-37.477 -25.583)" fill="#223d54"/>
    <path id="Tracé_40" data-name="Tracé 40" d="M189.226,87.844q0,9.421-9.42,9.443-9.4,0-9.4-9.443V61.675q0-9.424,9.4-9.422,9.42,0,9.42,9.422v6.193h-7.261V61.675q0-2.443-2.137-2.465h-.044q-2.116,0-2.115,2.465V87.844q0,2.466,2.137,2.465,2.158,0,2.159-2.465V81.651h7.261Z" transform="translate(-41.365 -25.481)" fill="#223d54"/>
    <path id="Tracé_41" data-name="Tracé 41" d="M214.665,53.031v6.956h-5.78v36.7h-7.263v-36.7h-5.779V53.031Z" transform="translate(-44.712 -25.583)" fill="#223d54"/>
    <path id="Tracé_42" data-name="Tracé 42" d="M240.606,87.946q0,9.421-9.421,9.443-9.4,0-9.4-9.443V53.031h7.262V87.946q0,2.466,2.138,2.465,2.159,0,2.157-2.465V53.031h7.264Z" transform="translate(-48.125 -25.583)" fill="#223d54"/>
    <path id="Tracé_43" data-name="Tracé 43" d="M21.819,125.737c1.326-.221,1.673-.868,1.688-2.667v-7.433h1.641v7.212c.064,2.888-.962,4.071-3.14,4.15Zm1.468-12.721a1.043,1.043,0,1,1,1.042,1.009.961.961,0,0,1-1.042-1.009" transform="translate(-21.818 -33.337)" fill="#223d54"/>
    <path id="Tracé_44" data-name="Tracé 44" d="M35.322,120.017c0,2.431-1.5,4.041-3.756,4.041a3.726,3.726,0,0,1-3.789-4.009c.033-2.431,1.548-4.039,3.789-4.039a3.691,3.691,0,0,1,3.756,4.007m-5.9.016c0,1.658.867,2.763,2.146,2.763,1.277-.016,2.13-1.106,2.13-2.763s-.853-2.745-2.13-2.762c-1.279,0-2.146,1.09-2.146,2.762" transform="translate(-22.602 -33.868)" fill="#223d54"/>
    <path id="Tracé_45" data-name="Tracé 45" d="M45.09,123.925H43.78l-.11-.979h-.063a3.5,3.5,0,0,1-2.6,1.137c-1.878,0-2.652-1.073-2.652-3.03v-4.862h1.643v4.75c0,1.279.489,1.817,1.545,1.817a2.466,2.466,0,0,0,1.91-.948v-5.618H45.09Z" transform="translate(-23.993 -33.892)" fill="#223d54"/>
    <path id="Tracé_46" data-name="Tracé 46" d="M48.688,116.167H50l.157,1.31h.063a3.169,3.169,0,0,1,2.431-1.468,1.244,1.244,0,0,1,.284.032l-.127,1.42a2.127,2.127,0,0,0-.3-.016A3.068,3.068,0,0,0,50.33,118.8v5.1H48.688Z" transform="translate(-25.353 -33.868)" fill="#223d54"/>
    <path id="Tracé_47" data-name="Tracé 47" d="M61.877,119.04v4.86H60.235v-4.75c0-1.279-.489-1.815-1.546-1.815a2.442,2.442,0,0,0-1.909.9V123.9H55.137v-7.732h1.31l.11.978h.064a3.5,3.5,0,0,1,2.6-1.137c1.878,0,2.651,1.074,2.651,3.031" transform="translate(-26.201 -33.868)" fill="#223d54"/>
    <path id="Tracé_48" data-name="Tracé 48" d="M64.911,120.333a4.151,4.151,0,0,1,4.246-4.324,5.748,5.748,0,0,1,2.683.631v5.43l.08,1.83H70.546l-.159-.931H70.34a2.841,2.841,0,0,1-2.256,1.089c-1.91,0-3.172-1.421-3.172-3.725m5.335,1.31v-4.167a3.58,3.58,0,0,0-1.152-.206,2.654,2.654,0,0,0-2.542,2.889c0,1.689.743,2.65,1.846,2.635a1.926,1.926,0,0,0,1.847-1.152" transform="translate(-27.487 -33.868)" fill="#223d54"/>
    <path id="Tracé_49" data-name="Tracé 49" d="M75.594,120.959l.031-8.95h1.609v8.555c0,1.231.143,1.578,1.026,1.578.11,0,.364-.016.505-.032l.157,1.185a4.1,4.1,0,0,1-1.389.2c-1.326,0-1.941-.82-1.941-2.54" transform="translate(-28.892 -33.342)" fill="#223d54"/>
    <path id="Tracé_50" data-name="Tracé 50" d="M85.149,120.959l.031-8.95H86.79v8.555c0,1.231.143,1.578,1.026,1.578.11,0,.364-.016.505-.032l.157,1.185a4.1,4.1,0,0,1-1.389.2c-1.326,0-1.941-.82-1.941-2.54" transform="translate(-30.149 -33.342)" fill="#223d54"/>
    <path id="Tracé_51" data-name="Tracé 51" d="M97.416,120.017c0,2.431-1.5,4.041-3.756,4.041a3.726,3.726,0,0,1-3.789-4.009c.033-2.431,1.548-4.039,3.789-4.039a3.691,3.691,0,0,1,3.756,4.007m-5.9.016c0,1.658.868,2.763,2.147,2.763,1.277-.016,2.13-1.106,2.13-2.763s-.853-2.745-2.13-2.762c-1.279,0-2.147,1.09-2.147,2.762" transform="translate(-30.771 -33.868)" fill="#223d54"/>
    <path id="Tracé_52" data-name="Tracé 52" d="M99.919,120.033a3.675,3.675,0,0,1,3.962-4.023,5.132,5.132,0,0,1,2.13.44l-.284,1.264a4.373,4.373,0,0,0-1.767-.379c-1.626,0-2.414,1.043-2.414,2.7,0,1.674.819,2.7,2.414,2.7a4.356,4.356,0,0,0,1.815-.4l.252,1.247a4.527,4.527,0,0,1-2.257.473c-2.414,0-3.851-1.546-3.851-4.025" transform="translate(-32.093 -33.868)" fill="#223d54"/>
    <path id="Tracé_53" data-name="Tracé 53" d="M108.257,120.333a4.151,4.151,0,0,1,4.246-4.324,5.746,5.746,0,0,1,2.683.631v5.43l.08,1.83h-1.373l-.159-.931h-.048a2.841,2.841,0,0,1-2.256,1.089c-1.91,0-3.172-1.421-3.172-3.725m5.335,1.31v-4.167a3.58,3.58,0,0,0-1.152-.206,2.654,2.654,0,0,0-2.542,2.889c0,1.689.743,2.65,1.847,2.635a1.925,1.925,0,0,0,1.846-1.152" transform="translate(-33.189 -33.868)" fill="#223d54"/>
    <path id="Tracé_54" data-name="Tracé 54" d="M118.94,120.959l.031-8.95h1.611v8.555c0,1.231.142,1.578,1.025,1.578.11,0,.364-.016.505-.032l.157,1.185a4.1,4.1,0,0,1-1.389.2c-1.325,0-1.941-.82-1.941-2.54" transform="translate(-34.595 -33.342)" fill="#223d54"/>
    <path id="Tracé_55" data-name="Tracé 55" d="M127.95,119.507c0-2.525,1.2-4.024,3.409-4.024a2.986,2.986,0,0,1,2.052.853h.063v-4.325h1.64v11.364h-1.088l-.236-1.026h-.063a3.4,3.4,0,0,1-2.494,1.2c-2.083,0-3.283-1.5-3.283-4.041m5.555,1.894V117.63a2.477,2.477,0,0,0-1.862-.868c-1.342,0-2.051,1.009-2.051,2.745,0,1.753.71,2.747,2.051,2.747a2.505,2.505,0,0,0,1.862-.853" transform="translate(-35.78 -33.342)" fill="#223d54"/>
    <path id="Tracé_56" data-name="Tracé 56" d="M139.885,113.3a5.186,5.186,0,0,1-.931,2.556l-.79-.173a2.48,2.48,0,0,0,.489-1.594.884.884,0,0,1-.694-.915.915.915,0,0,1,.964-.978c.583,0,.962.346.962,1.1" transform="translate(-37.097 -33.366)" fill="#223d54"/>
    <path id="Tracé_57" data-name="Tracé 57" d="M141.774,113.015a1.043,1.043,0,1,1,1.043,1.01.978.978,0,0,1-1.043-1.01m.253,2.621h1.627v7.734h-1.642Z" transform="translate(-37.599 -33.337)" fill="#223d54"/>
    <path id="Tracé_58" data-name="Tracé 58" d="M153.383,119.04v4.86H151.74v-4.75c0-1.279-.488-1.815-1.545-1.815a2.441,2.441,0,0,0-1.91.9V123.9h-1.642v-7.732h1.31l.109.978h.063a3.505,3.505,0,0,1,2.6-1.137c1.878,0,2.652,1.074,2.652,3.031" transform="translate(-38.239 -33.868)" fill="#223d54"/>
    <path id="Tracé_59" data-name="Tracé 59" d="M155.836,116.317v-.125h1.672l2.116,6.139h.048l2.178-6.139h1.674v.125l-3.031,7.607h-1.658Z" transform="translate(-39.449 -33.892)" fill="#223d54"/>
    <path id="Tracé_60" data-name="Tracé 60" d="M171.892,123.16a4.985,4.985,0,0,1-2.9.9c-2.589,0-3.725-1.894-3.725-3.945,0-2.573,1.578-4.088,3.819-4.088,1.752,0,2.762.962,2.762,2.178,0,1.7-2.162,2.794-4.94,2.73a2.049,2.049,0,0,0,2.241,1.832,4.929,4.929,0,0,0,2.274-.728Zm-5.05-3.33c2.084.1,3.471-.6,3.471-1.53,0-.632-.472-1.041-1.324-1.041a2.261,2.261,0,0,0-2.147,2.571" transform="translate(-40.689 -33.87)" fill="#223d54"/>
    <path id="Tracé_61" data-name="Tracé 61" d="M174.2,123.474l.3-1.247a5.856,5.856,0,0,0,2.288.553c.9,0,1.578-.348,1.61-.931,0-1.61-4.041-.853-4.041-3.63,0-1.326,1.184-2.209,3.14-2.209a4.789,4.789,0,0,1,2.147.472l-.3,1.264a4.326,4.326,0,0,0-1.893-.442c-.963,0-1.515.283-1.515.835,0,1.61,4.04,1.169,4.04,3.646-.033,1.373-1.184,2.273-3.172,2.273a6.356,6.356,0,0,1-2.6-.584" transform="translate(-41.865 -33.868)" fill="#223d54"/>
    <path id="Tracé_62" data-name="Tracé 62" d="M187.061,123.434a6.264,6.264,0,0,1-1.752.254c-1.482,0-2.114-.805-2.114-2.637l-.017-3.962h-1.31v-1.261h1.342l.379-2.4h1.231v2.4h2.162v1.261H184.82v3.74c0,1.027.253,1.453,1.042,1.453a5.324,5.324,0,0,0,1.073-.1Z" transform="translate(-42.873 -33.528)" fill="#223d54"/>
    <path id="Tracé_63" data-name="Tracé 63" d="M189.408,113.015a1.042,1.042,0,1,1,1.042,1.01.977.977,0,0,1-1.042-1.01m.252,2.621h1.627v7.734h-1.642Z" transform="translate(-43.865 -33.337)" fill="#223d54"/>
    <path id="Tracé_64" data-name="Tracé 64" d="M194.361,126.93l.393-1.246a5.908,5.908,0,0,0,2.353.521c1.4,0,2.035-1.043,2.035-2.652v-.537H199.1a2.669,2.669,0,0,1-2.209,1.042c-1.91,0-3.172-1.421-3.172-3.725a4.158,4.158,0,0,1,4.278-4.324,5.809,5.809,0,0,1,2.7.631v6.787c0,2.367-1.136,4.1-3.55,4.1a7.1,7.1,0,0,1-2.778-.6m4.735-5.286v-4.136a3.4,3.4,0,0,0-1.152-.22,2.655,2.655,0,0,0-2.589,2.872c0,1.689.741,2.65,1.878,2.635a1.954,1.954,0,0,0,1.863-1.152" transform="translate(-44.432 -33.868)" fill="#223d54"/>
    <path id="Tracé_65" data-name="Tracé 65" d="M203.632,120.333a4.151,4.151,0,0,1,4.246-4.324,5.751,5.751,0,0,1,2.683.631v5.43l.078,1.83h-1.371l-.159-.931h-.048a2.843,2.843,0,0,1-2.256,1.089c-1.91,0-3.172-1.421-3.172-3.725m5.335,1.31v-4.167a3.591,3.591,0,0,0-1.153-.206,2.654,2.654,0,0,0-2.54,2.889c0,1.689.741,2.65,1.846,2.635a1.93,1.93,0,0,0,1.847-1.152" transform="translate(-45.736 -33.868)" fill="#223d54"/>
    <path id="Tracé_66" data-name="Tracé 66" d="M218.544,123.434a6.269,6.269,0,0,1-1.752.254c-1.483,0-2.115-.805-2.115-2.637l-.017-3.962h-1.308v-1.261h1.341l.38-2.4H216.3v2.4h2.162v1.261H216.3v3.74c0,1.027.253,1.453,1.042,1.453a5.313,5.313,0,0,0,1.073-.1Z" transform="translate(-47.015 -33.528)" fill="#223d54"/>
    <path id="Tracé_67" data-name="Tracé 67" d="M220.891,113.015a1.042,1.042,0,1,1,1.041,1.01.977.977,0,0,1-1.041-1.01m.252,2.621h1.625v7.734h-1.641Z" transform="translate(-48.007 -33.337)" fill="#223d54"/>
    <path id="Tracé_68" data-name="Tracé 68" d="M232.6,120.017c0,2.431-1.5,4.041-3.756,4.041a3.725,3.725,0,0,1-3.789-4.009c.033-2.431,1.546-4.039,3.789-4.039a3.691,3.691,0,0,1,3.756,4.007m-5.9.016c0,1.658.868,2.763,2.147,2.763,1.277-.016,2.129-1.106,2.129-2.763s-.853-2.745-2.129-2.762c-1.279,0-2.147,1.09-2.147,2.762" transform="translate(-48.554 -33.868)" fill="#223d54"/>
    <path id="Tracé_69" data-name="Tracé 69" d="M242.436,119.04v4.86h-1.643v-4.75c0-1.279-.488-1.815-1.545-1.815a2.441,2.441,0,0,0-1.91.9V123.9H235.7v-7.732h1.311l.109.978h.063a3.505,3.505,0,0,1,2.6-1.137c1.878,0,2.652,1.074,2.652,3.031" transform="translate(-49.955 -33.868)" fill="#223d54"/>
  </g>
</svg>
